<svg width="173.754" height="26.372" viewBox="0 0 173.754 26.372" xmlns="http://www.w3.org/2000/svg">
    <g id="svgGroup" stroke-linecap="round" fill-rule="evenodd" font-size="9pt" stroke="#3b82f6"
        stroke-width="0.25mm" fill="#3b82f6" style="stroke:#3b82f6;stroke-width:0.25mm;fill:#3b82f6">
        <path
            d="M 25.356 25.89 L 30.427 1.335 L 26.851 1.335 L 23.541 18.577 L 19.27 1.335 L 13.772 1.335 L 9.342 18.683 L 5.925 1.335 L 0 1.335 L 5.018 25.89 L 10.73 25.89 L 15.48 8.007 L 19.964 25.89 L 25.356 25.89 Z M 113.434 25.89 L 118.025 6.673 L 114.662 6.673 L 111.512 21.352 L 108.843 6.673 L 103.559 6.673 L 100.463 21.246 L 97.847 6.673 L 91.815 6.673 L 95.765 25.89 L 102.438 25.89 L 104.786 15.907 L 106.815 25.89 L 113.434 25.89 Z M 162.438 18.203 L 167.349 25.89 L 173.754 25.89 L 166.068 14.359 L 173.167 6.673 L 169.804 6.673 L 162.171 15 L 162.171 0 L 156.192 0.747 L 156.192 25.89 L 162.171 25.89 L 162.171 18.47 L 162.224 18.47 L 162.438 18.203 Z M 44.199 23.648 L 45.694 25.89 L 49.644 25.89 L 49.644 12.865 Q 49.644 6.755 42.797 6.24 A 17.601 17.601 0 0 0 41.477 6.192 A 16.448 16.448 0 0 0 39.459 6.307 Q 37.264 6.579 36 7.497 A 4.322 4.322 0 0 0 35.605 7.82 A 5.716 5.716 0 0 0 34.253 9.778 Q 33.691 11.077 33.523 12.865 L 38.434 13.452 Q 38.585 10.406 39.954 9.506 A 2.425 2.425 0 0 1 41.317 9.128 Q 43.354 9.128 43.663 11.547 A 7.464 7.464 0 0 1 43.719 12.491 L 43.719 14.413 L 40.409 15.053 A 29.923 29.923 0 0 0 38.342 15.49 Q 36.338 15.994 35.11 16.675 A 6.109 6.109 0 0 0 34.431 17.109 A 4.25 4.25 0 0 0 32.721 20.098 A 6.342 6.342 0 0 0 32.669 20.925 A 6.687 6.687 0 0 0 32.874 22.627 A 4.783 4.783 0 0 0 34.19 24.902 A 5.132 5.132 0 0 0 36.888 26.254 A 7.322 7.322 0 0 0 38.221 26.37 A 8.273 8.273 0 0 0 41.095 25.89 A 7.197 7.197 0 0 0 44.199 23.648 Z M 65.018 25.89 L 71.263 6.673 L 67.9 6.673 L 62.989 22.954 L 58.078 6.673 L 52.153 6.673 L 58.345 25.89 L 65.018 25.89 Z M 78.737 17.082 L 90.107 17.082 L 90.107 16.441 A 17.971 17.971 0 0 0 89.741 12.637 Q 88.339 6.192 81.566 6.192 Q 72.811 6.192 72.811 16.281 A 20.171 20.171 0 0 0 72.974 18.931 Q 73.156 20.299 73.541 21.414 A 7.88 7.88 0 0 0 74.867 23.861 Q 76.631 26.015 80.204 26.32 A 14.453 14.453 0 0 0 81.432 26.37 A 20.182 20.182 0 0 0 83.519 26.27 Q 85.706 26.042 87.016 25.294 A 4.448 4.448 0 0 0 87.758 24.769 A 6.044 6.044 0 0 0 89.63 21.628 A 8.321 8.321 0 0 0 89.84 20.391 L 84.929 20.285 A 4.988 4.988 0 0 1 84.796 21.493 Q 84.403 23.06 82.853 23.362 A 4.221 4.221 0 0 1 82.046 23.434 A 3.361 3.361 0 0 1 81.001 23.281 A 2.597 2.597 0 0 1 79.537 22.073 Q 78.737 20.712 78.737 17.082 Z M 147.491 10.036 L 145.089 6.673 L 142.367 6.673 L 142.367 25.89 L 148.345 25.89 L 148.345 13.986 Q 148.345 12.331 149.493 11.53 Q 150.42 10.883 152.514 10.759 A 17.973 17.973 0 0 1 153.577 10.73 L 153.577 6.512 Q 149.68 6.512 147.491 10.036 Z M 137.989 16.281 A 16.294 16.294 0 0 0 137.584 12.474 Q 136.069 6.192 128.888 6.192 A 11.711 11.711 0 0 0 125.122 6.746 Q 119.913 8.514 119.789 15.917 A 21.765 21.765 0 0 0 119.786 16.281 A 16.294 16.294 0 0 0 120.191 20.089 Q 121.706 26.37 128.888 26.37 A 11.711 11.711 0 0 0 132.654 25.816 Q 137.862 24.049 137.986 16.646 A 21.765 21.765 0 0 0 137.989 16.281 Z M 125.752 14.54 A 35.296 35.296 0 0 0 125.712 16.281 A 37.424 37.424 0 0 0 125.733 17.577 Q 125.796 19.383 126.043 20.605 A 7.375 7.375 0 0 0 126.352 21.726 Q 126.803 22.927 127.873 23.284 A 3.2 3.2 0 0 0 128.888 23.434 A 3.586 3.586 0 0 0 129.523 23.381 Q 130.892 23.134 131.397 21.753 A 6.791 6.791 0 0 0 131.64 20.898 Q 131.891 19.764 131.972 18.044 A 37.678 37.678 0 0 0 132.011 16.281 A 39.504 39.504 0 0 0 131.987 14.869 Q 131.923 13.102 131.692 11.913 A 7.336 7.336 0 0 0 131.397 10.81 A 3.382 3.382 0 0 0 131.309 10.593 Q 130.859 9.582 129.876 9.269 A 3.246 3.246 0 0 0 128.888 9.128 A 3.608 3.608 0 0 0 128.316 9.171 Q 126.891 9.4 126.352 10.836 Q 125.872 12.117 125.752 14.54 Z M 41.317 17.295 L 43.719 16.815 L 43.719 21.566 Q 42.183 23.204 40.794 23.271 A 2.451 2.451 0 0 1 40.676 23.274 A 4.283 4.283 0 0 1 39.632 23.158 Q 37.954 22.735 37.954 20.765 Q 37.954 18.043 41.317 17.295 Z M 84.342 14.146 L 78.843 14.146 A 25.409 25.409 0 0 1 78.97 12.835 Q 79.206 10.958 79.671 10.169 A 2.011 2.011 0 0 1 81.124 9.171 A 3.031 3.031 0 0 1 81.646 9.128 A 2.399 2.399 0 0 1 82.502 9.273 Q 83.119 9.507 83.502 10.119 A 2.793 2.793 0 0 1 83.621 10.329 A 4.66 4.66 0 0 1 83.941 11.167 Q 84.267 12.307 84.342 14.146 Z"
            vector-effect="non-scaling-stroke" />
    </g>
</svg>